<svg xmlns="http://www.w3.org/2000/svg" width="300" height="300" viewBox="0 0 300 300" fill="none">
  <!-- Scissors -->
  <path d="M40,50 C50,40 80,80 100,100 C120,80 150,40 160,50 C170,60 130,90 110,110 C130,130 170,170 160,180 C150,190 110,150 90,130 C70,150 30,190 20,180 C10,170 50,130 70,110 C50,90 30,60 40,50 Z" fill="#111"/>
  
  <!-- Razor -->
  <path d="M200,50 L220,30 L250,60 L230,80 L200,50 Z M190,60 L150,100 L180,130 L220,90 L190,60 Z" fill="#111"/>
  
  <!-- Comb -->
  <path d="M120,200 L180,200 L180,210 L120,210 Z M125,210 L125,230 L135,230 L135,210 Z M145,210 L145,230 L155,230 L155,210 Z M165,210 L165,230 L175,230 L175,210 Z" fill="#111"/>
  
  <!-- Barber pole mini -->
  <path d="M240,180 L260,180 L260,250 L240,250 Z" fill="#111"/>
  <path d="M240,180 L260,180 L260,250 L240,250 Z" stroke="#111" stroke-width="2" fill="none"/>
</svg> 